<?xml version="1.0" standalone="no"?>
<svg viewBox="0 0 200 200" xmlns="http://www.w3.org/2000/svg">
  <path fill="#FF0066" d="M42.4,-75.7C53.8,-66.8,61.1,-53.2,64.5,-39.8C67.9,-26.3,67.4,-13.2,65.1,-1.3C62.8,10.5,58.8,21.1,53.7,31.5C48.6,42,42.4,52.4,33.3,60.2C24.2,67.9,12.1,73.1,-0.6,74C-13.2,75,-26.5,71.9,-37.3,65.1C-48,58.3,-56.4,47.8,-63.4,36.4C-70.3,24.9,-76,12.5,-79.1,-1.8C-82.3,-16.1,-83.1,-32.3,-76.3,-44C-69.5,-55.7,-55,-63,-41,-70.5C-27.1,-77.9,-13.5,-85.5,1,-87.1C15.5,-88.8,31,-84.6,42.4,-75.7Z" transform="translate(100 100)" />
</svg>
