<?xml version="1.0" standalone="no"?>
<svg viewBox="0 0 200 200" xmlns="http://www.w3.org/2000/svg">
  <path fill="#FF0066" d="M36.3,-62.7C47.9,-56,59,-48.3,64,-37.6C69,-27,68,-13.5,68.1,0.1C68.2,13.6,69.5,27.3,64.7,38.2C59.9,49.2,48.9,57.5,37.1,63.1C25.3,68.8,12.7,71.8,0.6,70.8C-11.5,69.8,-23.1,64.9,-37.1,60.5C-51,56.1,-67.5,52.3,-78.2,42.3C-88.9,32.3,-93.9,16.1,-93.9,0C-93.9,-16.2,-89,-32.4,-80.4,-46C-71.8,-59.6,-59.5,-70.6,-45.5,-75.9C-31.4,-81.3,-15.7,-80.8,-1.7,-77.9C12.3,-74.9,24.6,-69.3,36.3,-62.7Z" transform="translate(100 100)" />
</svg>
