<?xml version="1.0" standalone="no"?>
<svg viewBox="0 0 200 200" xmlns="http://www.w3.org/2000/svg">
  <path fill="#FF0066" d="M41.9,-68.4C55.1,-64.9,67.1,-55.3,71,-42.9C74.9,-30.5,70.7,-15.2,67.5,-1.8C64.3,11.6,62.3,23.2,59.1,36.9C56,50.6,51.7,66.5,41.7,72.1C31.7,77.8,15.8,73.2,1.9,69.9C-12,66.5,-23.9,64.3,-35.5,59.5C-47,54.8,-58.2,47.4,-66.1,37C-73.9,26.7,-78.6,13.3,-79.5,-0.6C-80.5,-14.5,-77.8,-28.9,-70,-39.4C-62.2,-49.9,-49.3,-56.5,-36.8,-60.4C-24.3,-64.4,-12.1,-65.7,1.1,-67.6C14.3,-69.5,28.7,-72,41.9,-68.4Z" transform="translate(100 100)" />
</svg>
