<?xml version="1.0" standalone="no"?>
<svg viewBox="0 0 200 200" xmlns="http://www.w3.org/2000/svg">
  <path fill="#FF0066" d="M33.5,-63.8C42.8,-52.6,49.4,-42.5,57.1,-32C64.9,-21.6,73.7,-10.8,78.7,2.9C83.6,16.5,84.7,33,78.5,46.1C72.3,59.2,58.8,68.8,44.5,77.1C30.2,85.3,15.1,92.1,-0.4,92.8C-15.9,93.4,-31.8,88,-41.7,77.2C-51.7,66.5,-55.7,50.5,-60.8,36.8C-65.9,23,-72,11.5,-72.5,-0.3C-72.9,-12,-67.6,-24,-61,-35.1C-54.4,-46.2,-46.4,-56.3,-36,-67C-25.6,-77.6,-12.8,-88.7,-0.4,-88.1C12.1,-87.4,24.1,-75.1,33.5,-63.8Z" transform="translate(100 100)" />
</svg>
